HIERARCHY
ROOT Hips
{
	OFFSET 0.000000 0.000000 0.000000
	CHANNELS 6 Xposition Yposition Zposition Zrotation Yrotation Xrotation 
	JOINT LHipJoint
	{
		OFFSET 0.000000 0.000000 0.000000
		CHANNELS 3 Zrotation Yrotation Xrotation
		JOINT LeftUpLeg
		{
			OFFSET 1.363060 -1.794630 0.839290
			CHANNELS 3 Zrotation Yrotation Xrotation
			JOINT LeftLeg
			{
				OFFSET 2.448110 -6.726130 0.000000
				CHANNELS 3 Zrotation Yrotation Xrotation
				JOINT LeftFoot
				{
					OFFSET 2.562200 -7.039590 0.000000
					CHANNELS 3 Zrotation Yrotation Xrotation
					JOINT LeftToeBase
					{
						OFFSET 0.157640 -0.433110 2.322550
						CHANNELS 3 Zrotation Yrotation Xrotation
						End Site
						{
							OFFSET 0.000000 0.000000 0.000000
						}
					}
				}
			}
		}
	}
	JOINT RHipJoint
	{
		OFFSET 0.000000 0.000000 0.000000
		CHANNELS 3 Zrotation Yrotation Xrotation
		JOINT RightUpLeg
		{
			OFFSET -1.305520 -1.794630 0.839290
			CHANNELS 3 Zrotation Yrotation Xrotation
			JOINT RightLeg
			{
				OFFSET -2.542530 -6.985550 0.000000
				CHANNELS 3 Zrotation Yrotation Xrotation
				JOINT RightFoot
				{
					OFFSET -2.568260 -7.056230 0.000000
					CHANNELS 3 Zrotation Yrotation Xrotation
					JOINT RightToeBase
					{
						OFFSET -0.164730 -0.452590 2.363150
						CHANNELS 3 Zrotation Yrotation Xrotation
						End Site
						{
							OFFSET 0.000000 0.000000 0.000000
						}
					}
				}
			}
		}
	}
	JOINT LowerBack
	{
		OFFSET 0.000000 0.000000 0.000000
		CHANNELS 3 Zrotation Yrotation Xrotation
		JOINT Spine
		{
			OFFSET 0.028270 2.035590 -0.193380
			CHANNELS 3 Zrotation Yrotation Xrotation
			JOINT Spine1
			{
				OFFSET 0.056720 2.048850 -0.042750
				CHANNELS 3 Zrotation Yrotation Xrotation
				JOINT Neck
				{
					OFFSET 0.000000 0.000000 0.000000
					CHANNELS 3 Zrotation Yrotation Xrotation
					JOINT Neck1
					{
						OFFSET -0.054170 1.746240 0.172020
						CHANNELS 3 Zrotation Yrotation Xrotation
						JOINT Head
						{
							OFFSET 0.104070 1.761360 -0.123970
							CHANNELS 3 Zrotation Yrotation Xrotation
							End Site
							{
								OFFSET 0.000000 0.000000 0.000000
							}
						}
					}
				}
				JOINT LeftShoulder
				{
					OFFSET 0.000000 0.000000 0.000000
					CHANNELS 3 Zrotation Yrotation Xrotation
					JOINT LeftArm
					{
						OFFSET 3.362410 1.200890 -0.311210
						CHANNELS 3 Zrotation Yrotation Xrotation
						JOINT LeftForeArm
						{
							OFFSET 4.983000 -0.000000 -0.000000
							CHANNELS 3 Zrotation Yrotation Xrotation
							JOINT LeftHand
							{
								OFFSET 3.483560 -0.000000 -0.000000
								CHANNELS 3 Zrotation Yrotation Xrotation
								JOINT LeftFingerBase
								{
									OFFSET 0.000000 0.000000 0.000000
									CHANNELS 3 Zrotation Yrotation Xrotation
									JOINT LeftHandIndex1
									{
										OFFSET 0.715260 -0.000000 -0.000000
										CHANNELS 3 Zrotation Yrotation Xrotation
										End Site
										{
											OFFSET 0.000000 0.000000 0.000000
										}
									}
								}
								JOINT LThumb
								{
									OFFSET 0.000000 0.000000 0.000000
									CHANNELS 3 Zrotation Yrotation Xrotation
									End Site
									{
										OFFSET 0.000000 0.000000 0.000000
									}
								}
							}
						}
					}
				}
				JOINT RightShoulder
				{
					OFFSET 0.000000 0.000000 0.000000
					CHANNELS 3 Zrotation Yrotation Xrotation
					JOINT RightArm
					{
						OFFSET -3.136600 1.374050 -0.404650
						CHANNELS 3 Zrotation Yrotation Xrotation
						JOINT RightForeArm
						{
							OFFSET -5.241900 -0.000000 -0.000000
							CHANNELS 3 Zrotation Yrotation Xrotation
							JOINT RightHand
							{
								OFFSET -3.444170 -0.000000 -0.000000
								CHANNELS 3 Zrotation Yrotation Xrotation
								JOINT RightFingerBase
								{
									OFFSET 0.000000 0.000000 0.000000
									CHANNELS 3 Zrotation Yrotation Xrotation
									JOINT RightHandIndex1
									{
										OFFSET -0.622530 -0.000000 -0.000000
										CHANNELS 3 Zrotation Yrotation Xrotation
										End Site
										{
											OFFSET 0.000000 0.000000 0.000000
										}
									}
								}
								JOINT RThumb
								{
									OFFSET 0.000000 0.000000 0.000000
									CHANNELS 3 Zrotation Yrotation Xrotation
									End Site
									{
										OFFSET 0.000000 0.000000 0.000000
									}
								}
							}
						}
					}
				}
			}
		}
	}
}
MOTION
Frames: 7
Frame Time: 0.008333
0.788241 17.004598 0.138663 137.043533 86.388922 136.753651 -10.858633 5.240839 -0.201301 6.035345 14.859932 2.509323 0.131120 2.398075 38.575183 1.401113 -4.166772 27.818456 -3.043400 -0.000000 -63.257200 9.622983 -0.509092 -0.805240 16.682869 -15.827210 -22.860651 1.575885 0.164926 14.790546 -5.266560 -23.060708 -11.663136 0.026400 0.000000 -5.706000 0.887663 -6.046707 -0.947784 -0.097035 -6.216002 -2.254466 -5.375525 -6.164876 3.311776 9.257822 -20.438098 -10.848631 -2.170654 -0.121098 -0.785440 0.000000 0.000000 0.000000 1.674314 14.503703 1.460132 -36.998927 6.107868 1.449551 -2.675906 -45.727739 0.000513 0.730358 0.331041 0.003242 -0.159347 0.066836 0.000000 0.000000 0.000000 0.000000 0.000000 0.000000 0.000000 15.042199 -19.736708 -0.054168 78.513304 -19.759047 -8.096384 4.786537 16.713279 -0.003332 9.269000 0.107036 0.006929 0.068398 0.023044 -0.000000 0.000000 0.000000 0.000000 0.000000 0.000000 0.000000 
0.952864 16.995336 0.195373 133.851967 86.851097 133.491872 -10.884873 5.071987 -0.300843 6.374972 15.048058 1.214047 0.252647 2.457373 41.151833 1.524258 -2.608783 27.761426 -2.261900 0.000000 -58.685300 9.606695 -0.624356 -0.856457 16.975790 -15.734349 -22.763953 1.636757 0.004354 16.195755 -5.155997 -22.354426 -12.412869 0.396900 -0.000000 -3.568700 1.066336 -5.961097 -0.803898 -0.075219 -6.133896 -2.246277 -5.413082 -6.084908 3.256722 9.365822 -20.282938 -10.852061 -2.187096 -0.122756 -0.786933 0.000000 0.000000 0.000000 1.839807 14.438019 1.432963 -37.912436 6.983253 1.638975 -2.711042 -45.562492 0.000399 0.653742 0.422343 0.003735 -0.160262 0.060338 0.000000 0.000000 0.000000 0.000000 0.000000 0.000000 0.000000 15.107623 -19.485605 -0.029269 78.078421 -18.630123 -7.917017 4.754599 16.609418 -0.002978 9.059878 0.050222 0.002438 0.069478 0.021025 -0.000000 0.000000 0.000000 0.000000 0.000000 0.000000 0.000000 
1.113301 16.984668 0.252971 129.095547 87.276308 128.685780 -10.901493 4.872259 -0.420527 6.582224 15.193236 -0.114567 0.377828 2.517805 43.664731 1.643325 -0.665586 27.259761 -1.257100 0.000000 -54.540200 9.590888 -0.735358 -0.889107 17.231508 -15.522295 -22.573928 1.683488 -0.138521 17.443270 -5.099127 -21.853432 -13.288931 0.797400 -0.000000 -1.325999 1.196676 -5.889062 -0.645354 -0.062060 -6.061433 -2.234674 -5.449176 -6.014554 3.199023 9.477709 -20.116706 -10.855169 -2.202553 -0.124288 -0.788636 0.000000 0.000000 0.000000 1.998527 14.372260 1.410888 -38.836003 7.890131 1.874026 -2.748878 -45.366605 0.000268 0.585227 0.510211 0.004125 -0.161276 0.053505 0.000000 0.000000 0.000000 0.000000 0.000000 0.000000 0.000000 15.170793 -19.225133 -0.006458 77.641049 -17.447886 -7.603059 4.713768 16.650241 -0.002536 8.849881 0.034768 0.001349 0.070280 0.018669 -0.000000 0.000000 0.000000 0.000000 0.000000 0.000000 0.000000 
1.270334 16.973295 0.311409 122.412172 87.631956 121.974402 -10.920750 4.640053 -0.552463 6.659370 15.279545 -1.469977 0.508744 2.573946 46.076980 1.759318 1.542208 26.328960 -0.129800 0.000000 -50.845900 9.563739 -0.849240 -0.902397 17.452768 -15.197838 -22.285666 1.719342 -0.263847 18.510906 -5.095046 -21.559738 -14.262001 -178.777500 0.000000 -0.919900 1.270437 -5.835319 -0.483148 -0.057991 -6.003265 -2.221122 -5.481090 -5.958495 3.140964 9.588142 -19.956494 -10.855207 -2.217043 -0.125758 -0.789700 0.000000 0.000000 0.000000 2.135452 14.303915 1.392063 -39.759028 8.827702 2.163129 -2.789710 -45.137425 0.000135 0.516208 0.592107 0.004315 -0.162294 0.046199 0.000000 0.000000 0.000000 0.000000 0.000000 0.000000 0.000000 15.231197 -18.977235 0.010926 77.185045 -16.212360 -7.079139 4.663043 16.833312 -0.001979 8.625852 0.083411 0.005163 0.070851 0.016017 -0.000000 0.000000 0.000000 0.000000 0.000000 0.000000 0.000000 
1.424777 16.962085 0.370616 113.511674 87.878965 113.066964 -10.961753 4.376996 -0.686866 6.607907 15.292737 -2.841435 0.643977 2.620716 48.347483 1.872864 3.879409 25.008000 1.008900 0.000001 -47.632600 9.507705 -0.972324 -0.899277 17.640255 -14.783003 -21.900803 1.748174 -0.372167 19.388322 -5.135835 -21.445008 -15.295626 -178.334200 -0.000000 -3.068501 1.272883 -5.801688 -0.327141 -0.065750 -5.961047 -2.207181 -5.508502 -5.918307 3.083407 9.693358 -19.796571 -10.846525 -2.233303 -0.127500 -0.788540 0.000000 0.000000 0.000000 2.241884 14.237803 1.375125 -40.674894 9.781898 2.514397 -2.834607 -44.861938 0.000015 0.439330 0.665518 0.004402 -0.163273 0.038311 0.000000 0.000000 0.000000 0.000000 0.000000 0.000000 0.000000 15.296137 -18.738212 0.018892 76.705189 -14.941879 -6.375074 4.603876 17.159040 -0.001303 8.394475 0.200131 0.013779 0.071174 0.013048 -0.000000 0.000000 0.000000 0.000000 0.000000 0.000000 0.000000 
1.577363 16.951870 0.430480 102.414506 87.976109 101.983587 -11.047088 4.092985 -0.812788 6.428990 15.226375 -4.218837 0.776539 2.657516 50.435673 1.983040 6.207749 23.351418 2.053800 -0.000000 -44.863800 9.403134 -1.104706 -0.884897 17.791604 -14.301574 -21.424795 1.771693 -0.461848 20.076021 -5.209128 -21.460871 -16.348906 -177.882700 0.000000 -5.031600 1.184378 -5.782969 -0.186832 -0.089925 -5.929324 -2.194491 -5.531568 -5.888423 3.027368 9.791372 -19.629173 -10.823931 -2.253770 -0.129808 -0.783690 0.000000 0.000000 0.000000 2.314415 14.184389 1.357928 -41.583943 10.732671 2.929336 -2.884808 -44.520487 -0.000092 0.347425 0.728683 0.004189 -0.164178 0.029775 0.000000 0.000000 0.000000 0.000000 0.000000 0.000000 0.000000 15.373278 -18.498891 0.014492 76.195939 -13.654783 -5.523726 4.537543 17.625063 -0.000511 8.160444 0.385200 0.026798 0.071243 0.009733 -0.000000 0.000000 0.000000 0.000000 0.000000 0.000000 0.000000 
1.728715 16.943446 0.490873 89.760870 87.887877 89.366391 -11.191052 3.810272 -0.919093 6.126655 15.085347 -5.595366 0.893459 2.691488 52.304875 2.086847 8.399491 21.425123 2.919200 -0.000000 -42.454501 9.238914 -1.235738 -0.864935 17.906213 -13.770464 -20.863725 1.788050 -0.527456 20.582074 -5.300696 -21.550068 -17.379663 -177.436900 0.000000 -6.742000 0.993793 -5.764800 -0.072096 -0.134156 -5.893957 -2.185097 -5.550861 -5.854593 2.974031 9.881266 -19.457731 -10.784596 -2.279033 -0.132783 -0.774250 0.000000 0.000000 0.000000 2.348938 14.150708 1.336882 -42.489109 11.672653 3.398811 -2.940649 -44.101871 -0.000196 0.231788 0.783725 0.003671 -0.164915 0.020519 0.000000 0.000000 0.000000 0.000000 0.000000 0.000000 0.000000 15.465054 -18.257696 -0.002190 75.649404 -12.354525 -4.530761 4.464841 18.215518 0.000404 7.917446 0.642259 0.043820 0.071149 0.006012 -0.000000 0.000000 0.000000 0.000000 0.000000 0.000000 0.000000 
